{
  "asset": {
    "version": "2.0",
    "generator": "THREE.GLTFExporter"
  },
  "scenes": [
    {
      "name": "Scene",
      "nodes": [
        2
      ]
    }
  ],
  "scene": 0,
  "nodes": [
    {
      "matrix": [
        1,
        0,
        0,
        0,
        0,
        1,
        0,
        0,
        0,
        0,
        10.964552915899533,
        0,
        0,
        0,
        0,
        1
      ],
      "name": "Default_001_Default.001",
      "mesh": 0
    },
    {
      "matrix": [
        1,
        0,
        0,
        0,
        0,
        1,
        0,
        0,
        0,
        0,
        10.5489085827762,
        0,
        0,
        0,
        0,
        1
      ],
      "name": "Default_PerlEarrings",
      "mesh": 1
    },
    {
      "matrix": [
        9.608408754470563,
        0,
        0,
        0,
        0,
        9.179519754690563,
        0,
        0,
        0,
        0,
        1,
        0,
        0,
        0.07210170190827662,
        0,
        1
      ],
      "name": "PerlEarrings.obj",
      "children": [
        0,
        1
      ]
    }
  ],
  "bufferViews": [
    {
      "buffer": 0,
      "byteOffset": 0,
      "byteLength": 300456,
      "target": 34962,
      "byteStride": 12
    },
    {
      "buffer": 0,
      "byteOffset": 300456,
      "byteLength": 300456,
      "target": 34962,
      "byteStride": 12
    },
    {
      "buffer": 0,
      "byteOffset": 600912,
      "byteLength": 200304,
      "target": 34962,
      "byteStride": 8
    },
    {
      "buffer": 0,
      "byteOffset": 801216,
      "byteLength": 300456,
      "target": 34962,
      "byteStride": 12
    },
    {
      "buffer": 0,
      "byteOffset": 1101672,
      "byteLength": 300456,
      "target": 34962,
      "byteStride": 12
    },
    {
      "buffer": 0,
      "byteOffset": 1402128,
      "byteLength": 200304,
      "target": 34962,
      "byteStride": 8
    }
  ],
  "buffers": [
    {
      "byteLength": 1602432,
      "uri": "data:application/octet-stream;base64,"
    }
  ],
  "accessors": [
    {
      "bufferView": 0,
      "componentType": 5126,
      "count": 25038,
      "max": [
        -0.003143999958410859,
        0.02938999980688095,
        0.0146289998665452
      ],
      "min": [
        -0.02814299985766411,
        -0.02633499912917614,
        -0.010370000265538692
      ],
      "type": "VEC3"
    },
    {
      "bufferView": 1,
      "componentType": 5126,
      "count": 25038,
      "max": [
        0.999565064907074,
        0.9994370341300964,
        0.9987699389457703
      ],
      "min": [
        -0.9987938404083252,
        -0.9990558624267578,
        -0.9995149970054626
      ],
      "type": "VEC3"
    },
    {
      "bufferView": 2,
      "componentType": 5126,
      "count": 25038,
      "max": [
        0.9842749834060669,
        0.9810720086097717
      ],
      "min": [
        0.020533999428153038,
        0.013949000276625156
      ],
      "type": "VEC2"
    },
    {
      "bufferView": 3,
      "componentType": 5126,
      "count": 25038,
      "max": [
        0.03205399960279465,
        0.02938999980688095,
        0.0146289998665452
      ],
      "min": [
        0.007054999936372042,
        -0.02633499912917614,
        -0.010370000265538692
      ],
      "type": "VEC3"
    },
    {
      "bufferView": 4,
      "componentType": 5126,
      "count": 25038,
      "max": [
        0.9987938404083252,
        0.9994370341300964,
        0.9987699389457703
      ],
      "min": [
        -0.999565064907074,
        -0.9990558624267578,
        -0.9995149970054626
      ],
      "type": "VEC3"
    },
    {
      "bufferView": 5,
      "componentType": 5126,
      "count": 25038,
      "max": [
        0.9842749834060669,
        0.9810720086097717
      ],
      "min": [
        0.020533999428153038,
        0.013949000276625156
      ],
      "type": "VEC2"
    }
  ],
  "materials": [
    {
      "pbrMetallicRoughness": {
        "metallicFactor": 0,
        "roughnessFactor": 1
      }
    },
    {
      "pbrMetallicRoughness": {
        "metallicFactor": 0.5,
        "roughnessFactor": 0.5
      },
      "name": "Pearl"
    }
  ],
  "meshes": [
    {
      "primitives": [
        {
          "mode": 4,
          "attributes": {
            "POSITION": 0,
            "NORMAL": 1,
            "TEXCOORD_0": 2
          }
        },
        {
          "mode": 4,
          "attributes": {
            "POSITION": 0,
            "NORMAL": 1,
            "TEXCOORD_0": 2
          },
          "material": 0
        }
      ]
    },
    {
      "primitives": [
        {
          "mode": 4,
          "attributes": {
            "POSITION": 3,
            "NORMAL": 4,
            "TEXCOORD_0": 5
          }
        },
        {
          "mode": 4,
          "attributes": {
            "POSITION": 3,
            "NORMAL": 4,
            "TEXCOORD_0": 5
          },
          "material": 1
        }
      ]
    }
  ]
}